<svg width="96" height="96" xmlns="http://www.w3.org/2000/svg" xmlns:xlink="http://www.w3.org/1999/xlink" xml:space="preserve" overflow="hidden"><g transform="translate(-1195 -385)"><path d="M1272 464 1272 404C1272 398.154 1257.06 395 1243 395 1228.94 395 1214 398.154 1214 404L1214 464C1214 469.846 1228.94 473 1243 473 1257.06 473 1272 469.846 1272 464ZM1243 397C1258.45 397 1270 400.7 1270 404 1270 407.3 1258.45 411 1243 411 1227.55 411 1216 407.3 1216 404 1216 400.7 1227.55 397 1243 397ZM1216 407.46C1220.53 411.08 1232.03 413 1243 413 1253.97 413 1265.47 411.08 1270 407.46L1270 424C1270 427.3 1258.45 431 1243 431 1227.55 431 1216 427.3 1216 424ZM1216 427.46C1220.53 431.08 1232.03 433 1243 433 1253.97 433 1265.47 431.08 1270 427.46L1270 444C1270 447.3 1258.45 451 1243 451 1227.55 451 1216 447.3 1216 444ZM1216 464 1216 447.46C1220.53 451.08 1232.03 453 1243 453 1253.97 453 1265.47 451.08 1270 447.46L1270 464C1270 467.3 1258.45 471 1243 471 1227.55 471 1216 467.3 1216 464Z"/><path d="M1265 421C1265 422.105 1264.1 423 1263 423 1261.9 423 1261 422.105 1261 421 1261 419.895 1261.9 419 1263 419 1264.1 419 1265 419.895 1265 421Z"/><path d="M1265 441C1265 442.105 1264.1 443 1263 443 1261.9 443 1261 442.105 1261 441 1261 439.895 1261.9 439 1263 439 1264.1 439 1265 439.895 1265 441Z"/><path d="M1265 461C1265 462.105 1264.1 463 1263 463 1261.9 463 1261 462.105 1261 461 1261 459.895 1261.9 459 1263 459 1264.1 459 1265 459.895 1265 461Z"/></g></svg>