<svg width="95" height="103" xmlns="http://www.w3.org/2000/svg" xmlns:xlink="http://www.w3.org/1999/xlink" xml:space="preserve" overflow="hidden"><g transform="translate(-223 -166)"><path d="M13.8542 81.1458 81.1458 81.1458 81.1458 13.8542 13.8542 13.8542ZM15.8333 15.8333 79.1667 15.8333 79.1667 23.75 15.8333 23.75ZM15.8333 25.7292 79.1667 25.7292 79.1667 79.1667 15.8333 79.1667Z" fill="#404040" transform="matrix(1 0 0 1.08421 223 166)"/><path d="M31.6667 41.5625 21.7708 41.5625 21.7708 73.2292 53.4375 73.2292 53.4375 63.3333 73.2292 63.3333 73.2292 31.6667 31.6667 31.6667ZM31.6667 71.25 23.75 71.25 23.75 63.3333 31.6667 63.3333ZM31.6667 61.3542 23.75 61.3542 23.75 53.4375 31.6667 53.4375ZM31.6667 51.4583 23.75 51.4583 23.75 43.5417 31.6667 43.5417ZM63.3333 33.6458 71.25 33.6458 71.25 41.5625 63.3333 41.5625ZM63.3333 43.5417 71.25 43.5417 71.25 51.4583 63.3333 51.4583ZM63.3333 53.4375 71.25 53.4375 71.25 61.3542 63.3333 61.3542ZM53.4375 33.6458 61.3542 33.6458 61.3542 41.5625 53.4375 41.5625ZM53.4375 43.5417 61.3542 43.5417 61.3542 51.4583 53.4375 51.4583ZM53.4375 53.4375 61.3542 53.4375 61.3542 61.3542 53.4375 61.3542ZM43.5417 33.6458 51.4583 33.6458 51.4583 41.5625 43.5417 41.5625ZM43.5417 43.5417 51.4583 43.5417 51.4583 51.4583 43.5417 51.4583ZM43.5417 53.4375 51.4583 53.4375 51.4583 61.3542 43.5417 61.3542ZM43.5417 63.3333 51.4583 63.3333 51.4583 71.25 43.5417 71.25ZM33.6458 33.6458 41.5625 33.6458 41.5625 41.5625 33.6458 41.5625ZM33.6458 43.5417 41.5625 43.5417 41.5625 51.4583 33.6458 51.4583ZM33.6458 53.4375 41.5625 53.4375 41.5625 61.3542 33.6458 61.3542ZM33.6458 63.3333 41.5625 63.3333 41.5625 71.25 33.6458 71.25Z" fill="#404040" transform="matrix(1 0 0 1.08421 223 166)"/></g></svg>