<svg width="96" height="96" xmlns="http://www.w3.org/2000/svg" xmlns:xlink="http://www.w3.org/1999/xlink" xml:space="preserve" overflow="hidden"><g transform="translate(-1604 -76)"><path d="M1651.98 86C1631.01 85.9995 1614 103.003 1614 123.979 1614 144.955 1631.01 161.959 1651.98 161.96 1672.96 161.961 1689.96 144.957 1689.96 123.981 1689.96 123.98 1689.96 123.978 1689.96 123.977 1689.97 103.011 1672.98 86.0077 1652.02 86 1652.01 86 1651.99 86 1651.98 86ZM1668.95 136.169 1664.17 140.95 1651.98 128.759 1639.8 140.948 1635.02 136.167 1647.2 123.977 1635.01 111.788 1639.8 107.007 1651.98 119.2 1664.17 107.007 1668.95 111.788 1656.77 123.977Z" fill="#EC130E"/></g></svg>