<svg width="472" height="329" xmlns="http://www.w3.org/2000/svg" xmlns:xlink="http://www.w3.org/1999/xlink" xml:space="preserve" overflow="hidden"><g transform="translate(-3513 -2809)"><path d="M3513.5 3001.06 3934.02 3001.06 3934.02 3007.94 3513.5 3007.94ZM3929.44 2990.75 3956.94 3004.5 3929.44 3018.25Z" fill="#BFBFBF"/><g><g><g><path d="M23.6949 292.892C25.7792 294.094 28.1428 294.728 30.549 294.729L298.465 294.729C306.035 294.721 312.167 288.578 312.159 281.007 312.157 278.605 311.523 276.247 310.322 274.167L176.392 41.125C172.626 34.5573 164.249 32.286 157.681 36.0519 155.57 37.2627 153.819 39.0136 152.608 41.125L18.6776 274.167C14.8923 280.723 17.1386 289.107 23.6949 292.892ZM24.6202 277.594 158.554 44.5521C159.159 43.4965 160.034 42.6213 161.09 42.016 162.124 41.4084 163.301 41.0876 164.5 41.0873 166.96 41.0959 169.228 42.4167 170.449 44.5521L304.387 277.594C306.279 280.872 305.156 285.064 301.878 286.957 300.84 287.556 299.663 287.873 298.465 287.875L30.5422 287.875C26.7567 287.867 23.6942 284.792 23.7019 281.007 23.7043 279.809 24.0209 278.631 24.6202 277.594Z" fill="#FF0000" transform="matrix(1.00608 0 0 1 3572 2809)"/><path d="M125.798 238.892 164.5 200.19 203.202 238.892 208.048 234.046 169.346 195.344 208.048 156.642 203.202 151.796 164.5 190.498 125.798 151.796 120.952 156.642 159.654 195.344 120.952 234.046 125.798 238.892Z" fill="#FF0000" transform="matrix(1.00608 0 0 1 3572 2809)"/></g></g></g></g></svg>