<svg width="425" height="265" xmlns="http://www.w3.org/2000/svg" xmlns:xlink="http://www.w3.org/1999/xlink" xml:space="preserve" overflow="hidden"><g transform="translate(-2857 -2605)"><path d="M2857.5 2759.06 3230.58 2759.06 3230.58 2765.94 2857.5 2765.94ZM3226 2748.75 3253.5 2762.5 3226 2776.25Z" fill="#BFBFBF"/><g><g><g><path d="M19.0855 235.916C20.7644 236.885 22.6682 237.395 24.6064 237.396L240.405 237.396C246.503 237.39 251.441 232.441 251.435 226.343 251.433 224.408 250.923 222.509 249.956 220.833L142.079 33.125C139.045 27.8349 132.298 26.0054 127.008 29.0388 125.307 30.014 123.897 31.4243 122.921 33.125L15.0443 220.833C11.9953 226.114 13.8047 232.867 19.0855 235.916ZM19.8308 223.594 127.711 35.8854C128.198 35.0352 128.903 34.3302 129.753 33.8427 130.586 33.3533 131.534 33.0949 132.5 33.0946 134.481 33.1015 136.308 34.1654 137.292 35.8854L245.175 223.594C246.699 226.234 245.794 229.611 243.154 231.136 242.318 231.618 241.37 231.873 240.405 231.875L24.6008 231.875C21.5518 231.869 19.085 229.392 19.0912 226.343 19.0931 225.378 19.3482 224.43 19.8308 223.594Z" fill="#FF0000" transform="matrix(1.11321 0 0 1 2910 2605)"/><path d="M101.327 192.42 132.5 161.247 163.673 192.42 167.577 188.517 136.403 157.344 167.577 126.17 163.673 122.267 132.5 153.441 101.327 122.267 97.4234 126.17 128.597 157.344 97.4234 188.517 101.327 192.42Z" fill="#FF0000" transform="matrix(1.11321 0 0 1 2910 2605)"/></g></g></g></g></svg>