<svg width="592" height="265" xmlns="http://www.w3.org/2000/svg" xmlns:xlink="http://www.w3.org/1999/xlink" xml:space="preserve" overflow="hidden"><g transform="translate(-2933 -3135)"><path d="M2933.5 3288.06 3473.88 3288.06 3473.88 3294.94 2933.5 3294.94ZM3469.29 3277.75 3496.79 3291.5 3469.29 3305.25Z" fill="#BFBFBF"/><g><g><g><path d="M19.0135 235.026C20.686 235.991 22.5827 236.499 24.5135 236.5L239.497 236.5C245.573 236.494 250.493 231.564 250.486 225.489 250.484 223.562 249.976 221.669 249.013 220L141.543 33C138.521 27.7299 131.798 25.9073 126.528 28.9292 124.834 29.9008 123.429 31.3057 122.457 33L14.9875 220C11.9501 225.261 13.7526 231.988 19.0135 235.026ZM19.756 222.75 127.229 35.75C127.714 34.903 128.417 34.2006 129.264 33.715 130.093 33.2274 131.038 32.97 132 32.9697 133.974 32.9766 135.794 34.0365 136.774 35.75L244.249 222.75C245.768 225.381 244.867 228.744 242.236 230.263 241.404 230.744 240.459 230.998 239.497 231L24.508 231C21.4704 230.994 19.013 228.526 19.0191 225.489 19.0211 224.527 19.2752 223.583 19.756 222.75Z" fill="#FF0000" transform="matrix(1 0 0 1.00379 3085 3135)"/><path d="M100.944 191.694 132 160.639 163.056 191.694 166.944 187.806 135.889 156.75 166.944 125.694 163.056 121.806 132 152.861 100.944 121.806 97.0557 125.694 128.111 156.75 97.0557 187.806 100.944 191.694Z" fill="#FF0000" transform="matrix(1 0 0 1.00379 3085 3135)"/></g></g></g></g></svg>