<svg width="592" height="275" xmlns="http://www.w3.org/2000/svg" xmlns:xlink="http://www.w3.org/1999/xlink" xml:space="preserve" overflow="hidden"><defs><clipPath id="clip0"><rect x="3025" y="4108" width="592" height="275"/></clipPath></defs><g clip-path="url(#clip0)" transform="translate(-3025 -4108)"><path d="M3025.5 4242.06 3565.87 4242.06 3565.87 4248.94 3025.5 4248.94ZM3561.29 4231.75 3588.79 4245.5 3561.29 4259.25Z" fill="#BFBFBF"/><path d="M3306.54 4108C3234.46 4107.98 3176.02 4169.52 3176 4245.46 3175.98 4321.4 3234.39 4382.98 3306.46 4383 3378.54 4383.02 3436.98 4321.48 3437 4245.54 3437 4245.53 3437 4245.51 3437 4245.5 3437.04 4169.6 3378.67 4108.04 3306.64 4108 3306.61 4108 3306.57 4108 3306.54 4108ZM3306.54 4375.76C3238.26 4375.78 3182.89 4317.48 3182.87 4245.54 3182.85 4173.59 3238.18 4115.25 3306.46 4115.23 3374.74 4115.21 3430.11 4173.51 3430.13 4245.46 3430.13 4245.47 3430.13 4245.49 3430.13 4245.51 3430.07 4317.41 3374.78 4375.68 3306.54 4375.77Z" fill="#00B050" fill-rule="evenodd"/><path d="M3284.53 4288.82 3241.83 4243.81 3237 4248.9 3284.53 4299 3385 4193.09 3380.17 4188 3284.53 4288.82Z" fill="#00B050" fill-rule="evenodd"/></g></svg>