<svg width="471" height="261" xmlns="http://www.w3.org/2000/svg" xmlns:xlink="http://www.w3.org/1999/xlink" xml:space="preserve" overflow="hidden"><defs><clipPath id="clip0"><rect x="4802" y="3170" width="471" height="261"/></clipPath></defs><g clip-path="url(#clip0)" transform="translate(-4802 -3170)"><path d="M4802.5 3297.06 5221.88 3297.06 5221.88 3303.94 4802.5 3303.94ZM5217.29 3286.75 5244.79 3300.5 5217.29 3314.25Z" fill="#BFBFBF"/><path d="M5022.54 3170C4950.46 3169.98 4892.02 3228.39 4892 3300.46 4891.98 3372.54 4950.39 3430.98 5022.46 3431 5094.54 3431.02 5152.98 3372.61 5153 3300.54 5153 3300.52 5153 3300.51 5153 3300.5 5153.04 3228.46 5094.67 3170.04 5022.64 3170 5022.61 3170 5022.57 3170 5022.54 3170ZM5022.54 3424.13C4954.26 3424.15 4898.89 3368.82 4898.87 3300.53 4898.85 3232.25 4954.18 3176.88 5022.46 3176.86 5090.74 3176.84 5146.11 3232.18 5146.13 3300.46 5146.13 3300.47 5146.13 3300.49 5146.13 3300.51 5146.07 3368.74 5090.78 3424.05 5022.54 3424.14Z" fill="#00B050" fill-rule="evenodd"/><path d="M4999.85 3341.37 4956.86 3298.79 4952 3303.61 4999.85 3351 5101 3250.82 5096.14 3246 4999.85 3341.37Z" fill="#00B050" fill-rule="evenodd"/></g></svg>