<svg width="96" height="96" xmlns="http://www.w3.org/2000/svg" xmlns:xlink="http://www.w3.org/1999/xlink" xml:space="preserve" overflow="hidden"><g transform="translate(-1340 -77)"><path d="M1387.98 87C1367 87 1350 104.004 1350 124.979 1350 145.954 1367 162.958 1387.98 162.958 1408.95 162.958 1425.96 145.954 1425.96 124.979 1425.96 124.978 1425.96 124.977 1425.96 124.976 1425.97 104.01 1408.97 87.0072 1388.01 87 1388 87 1387.99 87 1387.98 87ZM1397.18 126.793C1391.65 132.316 1386.08 137.889 1380.48 143.51 1375.72 138.729 1370.95 133.959 1366.17 129.2L1370.95 124.419 1380.48 133.948C1385.1 129.255 1389.7 124.596 1394.28 119.969 1398.85 115.343 1401.38 112.86 1406.12 108.278 1406.25 108.145 1406.4 108.013 1406.55 107.878 1406.7 107.751 1406.84 107.606 1406.95 107.446L1411.8 112.227C1406.17 117.827 1402.71 121.267 1397.18 126.79Z" fill="#028A02"/></g></svg>