<svg width="96" height="96" xmlns="http://www.w3.org/2000/svg" xmlns:xlink="http://www.w3.org/1999/xlink" xml:space="preserve" overflow="hidden"><g transform="translate(-1306 -383)"><path d="M1338 432.991 1338 465 1338 465 1338 465.023 1352 465.023 1352 433.014 1352 433.014 1352 432.991ZM1340 435.014 1350 435.014 1350 463 1340 463Z"/><path d="M1356 414.986 1356 465 1356 465 1356 465.023 1370 465.023 1370 415.009 1370 415.009 1370 414.986ZM1358 417.009 1368 417.009 1368 463 1358 463Z"/><path d="M1388 396.981 1374 396.981 1374 465 1374 465 1374 465.023 1388 465.023 1388 397 1388 397ZM1376 399 1386 399 1386 463 1376 463Z"/><path d="M1320 451 1320 465 1320 465 1320 465.023 1334 465.023 1334 451.023 1334 451.023 1334 451ZM1322 453.023 1332 453.023 1332 463 1322 463Z"/></g></svg>