<svg width="96" height="96" xmlns="http://www.w3.org/2000/svg" xmlns:xlink="http://www.w3.org/1999/xlink" xml:space="preserve" overflow="hidden"><g transform="translate(-225 -264)"><path d="M270.572 345.915C251.842 344.58 237.74 328.314 239.076 309.583 240.411 290.853 256.677 276.752 275.407 278.087 288.249 279.003 299.472 287.092 304.4 298.986 304.402 298.991 304.4 298.997 304.395 298.999 304.394 299 304.392 299 304.391 299L289 299 289 301 308 301 308 282 306 282 306 297.57C306 297.575 305.996 297.579 305.991 297.579 305.986 297.579 305.982 297.575 305.982 297.57 298.013 279.354 276.787 271.048 258.571 279.017 240.356 286.986 232.049 308.212 240.018 326.427 247.987 344.643 269.213 352.949 287.429 344.981 300.532 339.248 309 326.303 309 312L307 312C306.979 330.798 291.723 346.02 272.925 345.999 272.14 345.998 271.355 345.97 270.572 345.915Z" fill="#404040"/><path d="M272 291 272 312.414 286.303 326.717 287.717 325.303 274 311.586 274 291 272 291Z" fill="#404040"/></g></svg>