<svg width="96" height="96" xmlns="http://www.w3.org/2000/svg" xmlns:xlink="http://www.w3.org/1999/xlink" xml:space="preserve" overflow="hidden"><g transform="translate(-1732 -146)"><path d="M1822.6 226 1783.5 158C1782 155.3 1778.1 155.3 1776.6 158L1737.4 226C1735.9 228.7 1737.8 232 1740.9 232L1780 232 1819.1 232C1822.2 232 1824.1 228.7 1822.6 226ZM1777 174 1783 174 1783 209 1777 209 1777 174ZM1780 223C1777.2 223 1775 220.8 1775 218 1775 215.2 1777.2 213 1780 213 1782.8 213 1785 215.2 1785 218 1785 220.8 1782.8 223 1780 223Z" fill="#FFC000"/></g></svg>